<?xml version="1.0" encoding="utf-8"?>
<!-- Generator: Adobe Illustrator 26.0.1, SVG Export Plug-In . SVG Version: 6.00 Build 0)  -->
<svg version="1.1" id="Calque_1" xmlns="http://www.w3.org/2000/svg" xmlns:xlink="http://www.w3.org/1999/xlink" x="0px" y="0px"
	 viewBox="0 0 460 166" style="enable-background:new 0 0 460 166;" xml:space="preserve">
<style type="text/css">
	.st0{fill:url(#SVGID_1_);}
	.st1{fill:url(#SVGID_00000134212042058181259840000017330096334143296396_);}
	.st2{fill:url(#SVGID_00000127758584725507059310000006279484117735615369_);}
	.st3{fill:url(#SVGID_00000018227442483342983210000006855146650597141665_);}
	.st4{fill:url(#SVGID_00000100366164362043656940000008769881065149825690_);}
	.st5{fill:url(#SVGID_00000075124356410382755930000015987910867361197205_);}
	.st6{fill:url(#SVGID_00000063609361424099169080000004884503622218754216_);}
</style>
<g>
	<linearGradient id="SVGID_1_" gradientUnits="userSpaceOnUse" x1="143.5496" y1="77.4754" x2="143.5496" y2="129.0577">
		<stop  offset="0" style="stop-color:#3897D5"/>
		<stop  offset="1" style="stop-color:#000000"/>
	</linearGradient>
	<path class="st0" d="M151.65,136.68c0,0-9.59-30.2-13-49.82c-2.77-16.09-4.9-41.78-4.9-41.78h-1.07c0,0,1.92,26.25,2.13,42.9
		c0.21,15.52,0,40.22,0,40.22c0,4.38-0.64,6.07,4.48,7.62v0.85h-21.53v-0.85c5.12-1.69,4.26-3.1,4.26-7.62V26.74
		c0-4.52,0.85-5.93-4.26-7.62v-0.85h21.53c0,0,7.03,27.52,9.59,45.16c2.34,15.52,5.12,40.22,5.12,40.22h0.85
		c-0.64-15.67-2.13-24.7-2.56-40.22c-0.21-14.11,0-36.69,0-36.69c0-4.52,0.64-5.93-4.26-7.62v-0.85h21.32v0.85
		c-4.9,1.69-4.26,3.1-4.26,7.62v109.94H151.65z"/>
	
		<linearGradient id="SVGID_00000083784807194719227310000014006416880883552926_" gradientUnits="userSpaceOnUse" x1="206.1057" y1="77.4754" x2="206.1057" y2="127.9921">
		<stop  offset="0" style="stop-color:#3897D5"/>
		<stop  offset="1" style="stop-color:#000000"/>
	</linearGradient>
	<path style="fill:url(#SVGID_00000083784807194719227310000014006416880883552926_);" d="M180.85,135.83
		c5.12-1.69,4.48-3.1,4.48-7.62V26.74c0-4.52,0.64-5.93-4.48-7.62v-0.85h46.04l4.05,38.53h-3.62c-3.62-18.07-4.05-31.33-23.66-31.33
		v42.06c9.81-2.54,11.94-12.98,12.15-20.04h3.62V97.3h-4.26c-0.21-6.77-1.71-18.35-11.51-21.59v52.92c18.54,0,21.53-17.5,24.09-35
		h3.62l-1.28,43.05h-49.24V135.83z"/>
	
		<linearGradient id="SVGID_00000085249710623488887850000008729977876954166181_" gradientUnits="userSpaceOnUse" x1="256.4049" y1="77.4754" x2="256.4049" y2="104.5451">
		<stop  offset="0" style="stop-color:#3897D5"/>
		<stop  offset="1" style="stop-color:#000000"/>
	</linearGradient>
	<path style="fill:url(#SVGID_00000085249710623488887850000008729977876954166181_);" d="M269.94,135.83v0.85h-27.07v-0.85
		c5.12-1.69,4.48-3.1,4.48-7.62V26.74c0-4.52,0.64-5.93-4.48-7.62v-0.85h27.07v0.85c-4.9,1.55-4.26,3.25-4.26,7.62v101.47
		C265.68,132.59,265.04,134.28,269.94,135.83z"/>
	
		<linearGradient id="SVGID_00000158018470211649660460000014289792989961102773_" gradientUnits="userSpaceOnUse" x1="311.5037" y1="77.4754" x2="311.5037" y2="137.5833">
		<stop  offset="0" style="stop-color:#3897D5"/>
		<stop  offset="1" style="stop-color:#000000"/>
	</linearGradient>
	<path style="fill:url(#SVGID_00000158018470211649660460000014289792989961102773_);" d="M281.45,19.12v-0.85h27.07v0.85
		c-4.9,1.55-4.26,3.25-4.26,7.62v40.93l10.44-39.94c1.71-6.21,2.98-7.34-2.77-8.61v-0.85h24.3v0.85c-5.54,1.27-5.97,1.83-7.89,8.89
		l-9.38,34.86l14.71,64.5c1.49,6.07,5.12,7.34,7.89,8.61v0.71h-29.41v-0.85c5.54-0.85,3.41-6.49,3.2-8.33l-11.08-49.82v50.53
		c0,4.38-0.64,6.07,4.26,7.62v0.85h-27.07v-0.85c5.12-1.69,4.48-3.1,4.48-7.62V26.74C285.93,22.22,286.57,20.81,281.45,19.12z"/>
	
		<linearGradient id="SVGID_00000083767506501015550760000005112289049170801026_" gradientUnits="userSpaceOnUse" x1="377.79" y1="77.4754" x2="377.79" y2="137.5839">
		<stop  offset="0" style="stop-color:#3897D5"/>
		<stop  offset="1" style="stop-color:#000000"/>
	</linearGradient>
	<path style="fill:url(#SVGID_00000083767506501015550760000005112289049170801026_);" d="M347.74,19.12v-0.85h27.07v0.85
		c-4.9,1.55-4.26,3.25-4.26,7.62v40.93l10.44-39.94c1.71-6.21,2.98-7.34-2.77-8.61v-0.85h24.3v0.85c-5.54,1.27-5.97,1.83-7.89,8.89
		l-9.38,34.86l14.71,64.5c1.49,6.07,5.12,7.34,7.89,8.61v0.71h-29.41v-0.85c5.54-0.85,3.41-6.49,3.2-8.33l-11.08-49.82v50.53
		c0,4.38-0.64,6.07,4.26,7.62v0.85h-27.07v-0.85c5.12-1.69,4.48-3.1,4.48-7.62V26.74C352.21,22.22,352.85,20.81,347.74,19.12z"/>
	
		<linearGradient id="SVGID_00000176018214965776035730000006832389416902629800_" gradientUnits="userSpaceOnUse" x1="433.4207" y1="77.6166" x2="433.4207" y2="122.8044">
		<stop  offset="0" style="stop-color:#3897D5"/>
		<stop  offset="1" style="stop-color:#000000"/>
	</linearGradient>
	<path style="fill:url(#SVGID_00000176018214965776035730000006832389416902629800_);" d="M433.63,17.28c0.85,0,22.38,0,22.38,16.23
		v88.35c0,16.09-21.53,16.09-22.38,16.09c-0.85,0-22.81,0.14-22.81-15.95V33.37C410.83,17.14,432.78,17.28,433.63,17.28z
		 M433.63,24.48c-2.98,0-5.12,1.41-5.12,3.25c0,1.69,0,98.09,0,99.78c0,1.83,2.13,3.25,5.12,3.25c2.56,0,4.9-1.55,4.9-3.53
		c0-1.69,0-97.38,0-99.22C438.54,26.17,436.19,24.48,433.63,24.48z"/>
</g>
<linearGradient id="SVGID_00000068670633689892583530000016595519438949245106_" gradientUnits="userSpaceOnUse" x1="41.4533" y1="49.7011" x2="41.4533" y2="126.6311">
	<stop  offset="0" style="stop-color:#3897D5"/>
	<stop  offset="1" style="stop-color:#000000"/>
</linearGradient>
<path style="fill:url(#SVGID_00000068670633689892583530000016595519438949245106_);" d="M11.65,119.82
	c1.48,0.92,8.21,4.57,20.19,10.97c11.76,6.32,19.43,10.6,22.99,12.82c8.16,5.12,12.24,9.2,12.24,12.24c0,0.99-0.34,2.03-1.01,3.13
	c-0.67,1.13-1.01,1.73-1.01,1.8c0,0.18,0.16,0.28,0.48,0.32c0.39,0.07,0.87,0.02,1.43-0.16c1.59-0.5,3.41-1.66,5.46-3.5
	c2.15-1.98,3.46-4.54,3.92-7.68c0.39-2.83,0.04-5.16-1.06-6.99c-1.34-2.23-2.9-3.87-4.66-4.93c3.57-1.77,5.86-4.95,6.89-9.54
	c0.74-3.21,0.41-6.34-1.01-9.38c-1.17-2.61-2.83-4.68-4.98-6.2c-2.54-1.8-4.63-3.37-6.25-4.72c3.57-1.91,6.39-4.13,8.48-6.68
	c3.92-4.77,5.62-10.91,5.09-18.44c-0.32-4.59-2.56-8.55-6.73-11.87c-1.58-1.25-3.2-2.24-4.87-2.98c1.8-1.61,3.29-3.48,4.46-5.61
	c2.08-3.71,2.93-8.21,2.54-13.51c-0.35-4.84-1.59-9.13-3.71-12.87c-1.45-2.58-3.55-5.39-6.31-8.42c-2.19-2.4-3.25-3.76-3.18-4.08
	c0.18-0.74,3.89-1.11,11.13-1.11c1.38,0,2.31-0.14,2.81-0.42c0.5-0.25,1.02-0.88,1.59-1.91c0.39-0.71,0.72-1.45,1.01-2.23
	c0.42-1.2,0.94-2.47,1.54-3.81c0.88-1.98,1.04-3.3,0.48-3.97c-0.49-0.57-1.73-0.85-3.71-0.85c-1.06,0-9.87,0.03-26.44,0.11
	C32.91,9.41,23.58,9.45,21.47,9.45c-3.25,0-4.87-0.94-4.87-2.81c0-1.41-0.51-2.33-1.54-2.76c-1.02-0.46-2.05-0.07-3.07,1.17
	c0.11-0.14-2.28,3.87-7.15,12.03c-1.06,1.73-1.24,3.13-0.53,4.19c0.71,1.06,2.1,1.59,4.19,1.59c16.67,0,27.32,0.09,31.95,0.26
	c4.06,0.11,7.68,1.59,10.86,4.45c3.81,3.43,6.15,8.27,6.99,14.52c0.88,6.5-0.32,11.3-3.6,14.41c-2.93,2.79-7.59,4.31-13.99,4.56
	c-5.23,0.21-9.84-1.17-13.83-4.13c-1.73-1.27-4.38-3.97-7.95-8.11c-2.15-2.54-3.57-4.04-4.24-4.5c-0.74-0.57-1.57-0.62-2.49-0.16
	c-1.45,0.74-2.98,1.92-4.61,3.55c-1.55,1.55-2.38,2.38-2.49,2.49c-0.81,0.99-1.22,2-1.22,3.02v23.37c0,0.18,0.01,0.35,0.02,0.51
	c-1.1,2.75-1.04,5.57,0.18,8.46c1.62,3.85,4.08,7.12,7.36,9.8c-4.77,2.97-7.52,6.45-8.27,10.44
	C2.22,111.08,5.04,115.76,11.65,119.82z M25.72,66.42h-6.5c-2.29,0-4.46,0.51-6.51,1.53c0.12-8.18,0.49-12.18,1.13-11.97
	c0.78,0.28,1.85,1.18,3.23,2.7c1.94,2.15,4.03,4.11,6.25,5.88C24.19,65.23,24.99,65.85,25.72,66.42z M62.14,105.15
	C40.35,94.3,27.67,87.93,24.1,86.02c-2.79-1.52-4.22-3.09-4.29-4.72c-0.11-1.66,1.4-2.54,4.5-2.65h30.52c2.44,0,4.82,0.62,7.15,1.85
	c2.83,1.48,4.59,3.53,5.3,6.15c1.62,6,1.32,10.61-0.9,13.83C65.04,102.39,63.62,103.95,62.14,105.15z M14.35,103.61
	c0.39-1.41,2.08-3.28,5.09-5.62c24.2,13.53,37.78,21.03,40.74,22.52c2.15,1.06,4.05,2.6,5.67,4.61c1.55,1.91,2.33,3.55,2.33,4.93
	c0,1.8-0.67,3.36-2.01,4.66c-28.05-15.19-43.76-23.63-47.15-25.33C15.37,107.55,13.82,105.62,14.35,103.61z"/>
</svg>
